<svg width="270" height="82" viewBox="0 0 270 82" fill="none" xmlns="http://www.w3.org/2000/svg">
<g clip-path="url(#clip0_51_3208)">
<path d="M31.2321 51.5322C27.262 47.5838 24.5771 42.5396 23.5259 37.0546C22.4747 31.5695 23.1059 25.8968 25.3374 20.7729C20.298 22.1632 15.713 24.8427 12.0396 28.5445C8.36622 32.2464 5.73266 36.8411 4.40149 41.8707C3.07032 46.9002 3.08804 52.1889 4.45289 57.2095C5.81774 62.2301 8.48203 66.8072 12.1802 70.4846C15.8783 74.1619 20.4811 76.8111 25.5297 78.1679C30.5783 79.5246 35.8963 79.5417 40.9535 78.2174C46.0108 76.893 50.6307 74.2733 54.3526 70.6198C58.0745 66.9662 60.7684 62.4063 62.1657 57.3945C57.0132 59.6157 51.308 60.2444 45.7915 59.1989C40.275 58.1534 35.2022 55.4822 31.2321 51.5322Z" fill="url(#paint0_linear_51_3208)"/>
<path d="M70.8175 12.1642C67.5885 8.95651 63.6203 6.58219 59.258 5.24786C54.8957 3.91353 50.2717 3.65963 45.7882 4.50825C41.3047 5.35688 37.0978 7.28233 33.5334 10.117C29.969 12.9517 27.1552 16.6097 25.3369 20.7727C30.4397 19.3716 35.8248 19.3409 40.9433 20.684C46.0619 22.0271 50.7308 24.6959 54.4742 28.4183C58.2176 32.1407 60.9017 36.7836 62.2528 41.8738C63.6039 46.964 63.5737 52.3194 62.1653 57.3942C66.3504 55.5848 70.0275 52.7858 72.8769 49.2409C75.7262 45.6959 77.6615 41.5122 78.5144 37.0539C79.3673 32.5955 79.1118 27.9974 77.7704 23.6595C76.429 19.3217 74.0421 15.3755 70.8175 12.1642Z" fill="url(#paint1_linear_51_3208)"/>
<path d="M12.1448 12.0919C4.3747 19.8231 0.0068302 30.3045 8.00366e-06 41.2353C-0.00681419 52.166 4.34796 62.6528 12.1084 70.3936C8.4187 66.7077 5.76393 62.1252 4.40823 57.1021C3.05253 52.079 3.04317 46.7903 4.38111 41.7625C5.71904 36.7347 8.35762 32.1429 12.0343 28.4442C15.7109 24.7455 20.2974 22.0687 25.3373 20.6804C27.1568 16.5183 29.9713 12.8614 33.5359 10.0278C37.1005 7.19408 41.3073 5.26946 45.7904 4.4213C50.2734 3.57314 54.897 3.82714 59.2589 5.16119C63.6207 6.49525 67.5888 8.86895 70.8179 12.0758C63.035 4.34075 52.4812 -0.00301458 41.478 1.56968e-06C30.4748 0.00301772 19.9234 4.35257 12.1448 12.0919Z" fill="url(#paint2_linear_51_3208)"/>
<path d="M71.3189 12.6065C71.1531 12.4336 70.9873 12.2607 70.8135 12.0918C70.9914 12.2607 71.1571 12.4336 71.3189 12.6065Z" fill="url(#paint3_linear_51_3208)"/>
<path d="M71.3194 12.6064C74.4175 15.8533 76.6829 19.7949 77.9238 24.0974C79.1647 28.3999 79.3446 32.9365 78.448 37.3227C77.5514 41.709 75.6049 45.8158 72.7735 49.295C69.942 52.7743 66.3089 55.5235 62.1821 57.3097C62.1844 57.3365 62.1844 57.3634 62.1821 57.3902H62.1578C60.7556 62.4004 58.0574 66.9576 54.3321 70.6075C50.6069 74.2575 45.9847 76.8726 40.9264 78.1922C35.8681 79.5119 30.5503 79.4899 25.5032 78.1286C20.456 76.7673 15.8558 74.1142 12.1611 70.4337C19.9431 77.8998 30.3485 82.0496 41.1613 81.9994C51.9742 81.9493 62.3402 77.703 70.0517 70.165C77.7633 62.6269 82.211 52.3928 82.4478 41.6419C82.6846 30.8911 78.6917 20.473 71.3194 12.6064Z" fill="url(#paint4_linear_51_3208)"/>
<path d="M190.559 28.4601C191.763 27.6284 193.094 26.9957 194.501 26.5863C197.743 25.6775 201.189 25.8055 204.354 26.9523C209.501 28.7697 212.986 32.316 214.72 37.4063C216.398 42.3399 215.796 47.1206 213.014 51.5475C211.835 53.4915 210.254 55.1647 208.376 56.4566C206.499 57.7485 204.367 58.6298 202.122 59.0423C198.101 59.8698 193.914 59.1968 190.36 57.1517C186.805 55.1066 184.132 51.8323 182.849 47.9529C182.264 46.163 181.977 44.2901 182 42.4082C182 32.9969 182 23.5815 182 14.1621C182 13.6514 182.145 13.5469 182.634 13.5509C185.093 13.5777 187.55 13.5777 190.005 13.5509C190.502 13.5509 190.583 13.7037 190.583 14.15C190.583 18.6654 190.583 23.1848 190.583 27.7041L190.559 28.4601ZM207.136 42.7017C207.136 37.8406 203.57 34.1897 198.831 34.2058C194.093 34.2219 190.47 37.8607 190.442 42.6495C190.413 47.4382 194.048 51.1454 198.823 51.1776C203.598 51.2098 207.127 47.5508 207.131 42.7017H207.136ZM121.257 45.9988H109.831C109.131 45.9988 109.107 45.9988 109.338 46.6381C110.324 49.316 112.358 50.6589 115.115 51.061C116.51 51.2881 117.938 51.2113 119.3 50.8358C120.162 50.5608 120.972 50.1421 121.693 49.5974C121.985 49.3853 122.339 49.2763 122.7 49.2878C125.68 49.3119 128.663 49.324 131.643 49.3441C132.27 49.3441 132.25 49.3441 131.963 49.9191C130.656 52.5498 128.69 54.8015 126.254 56.4569C124.344 57.8025 122.153 58.7027 119.846 59.0905C114.561 59.9631 109.831 58.7689 105.747 55.2667C103.191 53.0982 101.368 50.1991 100.528 46.9638C99.7333 43.8628 99.8374 40.6013 100.828 37.5567C101.819 34.512 103.656 31.8085 106.127 29.7588C108.234 27.9695 110.782 26.7729 113.51 26.2928C115.731 25.8703 118.014 25.8898 120.227 26.3501C122.44 26.8104 124.539 27.7025 126.403 28.9747C129.59 30.9995 131.917 34.1172 132.945 37.7361C133.594 40.2398 133.752 42.8445 133.41 45.4077C133.353 45.9063 133.135 46.0108 132.67 46.0068C128.866 45.9907 125.057 45.9988 121.253 45.9988H121.257ZM116.809 39.2519H123.751C124.515 39.2519 124.56 39.2117 124.155 38.5362C123.457 37.286 122.445 36.237 121.218 35.4915C119.991 34.746 118.59 34.3293 117.153 34.2822C115.57 34.1743 113.99 34.5334 112.611 35.3144C111.233 36.0955 110.116 37.2637 109.402 38.6729C109.131 39.2117 109.152 39.2479 109.782 39.2479L116.809 39.2519ZM240.123 45.9988C236.314 45.9988 232.506 45.9988 228.701 45.9988C228.16 45.9988 228.038 46.1073 228.236 46.6381C229.243 49.3119 231.261 50.6589 234.018 51.0851C235.412 51.315 236.84 51.2409 238.203 50.868C239.047 50.5998 239.84 50.192 240.547 49.6617C240.87 49.4242 241.263 49.301 241.663 49.3119C244.623 49.3441 247.586 49.3522 250.558 49.3723C251.197 49.3723 251.177 49.3722 250.898 49.9352C249.583 52.5836 247.601 54.8484 245.144 56.5092C243.25 57.8416 241.077 58.7322 238.789 59.1147C233.533 59.9912 228.81 58.8171 224.731 55.3431C222.157 53.1696 220.322 50.2586 219.475 47.008C218.832 44.5823 218.751 42.0427 219.241 39.5816C219.815 36.4376 221.304 33.53 223.522 31.2183C225.441 29.122 227.896 27.5823 230.626 26.7633C232.987 26.0303 235.482 25.8207 237.933 26.1493C240.385 26.4779 242.735 27.3366 244.817 28.6651C248.276 30.6791 250.814 33.9499 251.896 37.7883C252.541 40.2724 252.696 42.857 252.353 45.3997C252.305 45.8782 252.115 46.0189 251.63 46.0189C247.768 45.9908 243.94 45.9988 240.115 45.9988H240.123ZM235.704 39.2519H242.577C243.422 39.2519 243.459 39.2197 243.01 38.4839C241.441 35.9186 239.161 34.4631 236.137 34.3063C232.688 34.1334 230.072 35.5608 228.39 38.5683C228.026 39.2076 228.058 39.2519 228.794 39.2519H235.704ZM165.039 58.407C161.411 53.1076 157.772 47.8108 154.123 42.5168C154 42.3907 153.929 42.2239 153.923 42.0485C153.917 41.8732 153.977 41.7019 154.09 41.5679C157.435 36.7429 160.767 31.8965 164.085 27.0286C164.17 26.904 164.356 26.7874 164.271 26.6266C164.186 26.4657 163.984 26.5341 163.83 26.5341C161.032 26.5341 158.23 26.5341 155.433 26.5341C155.267 26.52 155.101 26.553 154.954 26.6291C154.806 26.7053 154.683 26.8215 154.6 26.9643C152.873 29.4894 151.123 32.0024 149.376 34.5154C148.972 35.1105 148.972 35.1105 148.568 34.5154C146.856 32.0225 145.151 29.5282 143.453 27.0327C143.361 26.8717 143.225 26.7406 143.06 26.655C142.895 26.5694 142.708 26.533 142.523 26.5502C139.802 26.5502 137.085 26.5502 134.364 26.5502C134.154 26.5502 133.867 26.4215 133.754 26.6507C133.641 26.8799 133.903 26.9965 134.012 27.1573C137.255 31.9072 140.518 36.6518 143.801 41.3909C143.966 41.5673 144.058 41.7993 144.058 42.0403C144.058 42.2813 143.966 42.5133 143.801 42.6897C140.186 47.9006 136.587 53.1277 133.002 58.3708C132.897 58.5196 132.694 58.6442 132.796 58.9096C135.751 58.9096 138.711 58.9096 141.69 58.9096C141.885 58.9256 142.08 58.8856 142.252 58.7943C142.424 58.703 142.566 58.5644 142.661 58.3949C144.634 55.504 146.631 52.6251 148.62 49.7422C149.089 49.0627 149.093 49.0667 149.542 49.7422C151.483 52.5849 153.435 55.4195 155.348 58.2783C155.474 58.4978 155.662 58.6764 155.887 58.7927C156.113 58.9089 156.368 58.9579 156.621 58.9337C159.298 58.9016 161.978 58.9337 164.655 58.9337H165.35C165.176 58.6482 165.116 58.5236 165.039 58.407ZM256.065 58.2582C256.065 58.8091 256.223 58.9056 256.736 58.8975C259.129 58.8734 261.527 58.8654 263.921 58.8975C264.503 58.8975 264.592 58.7126 264.588 58.2019C264.588 52.806 264.588 47.4101 264.588 42.0182C264.571 41.1397 264.629 40.2613 264.761 39.3926C265.012 37.913 265.485 36.5338 266.751 35.5729C267.709 34.8975 268.864 34.5567 270.038 34.6038C270.393 34.6038 270.442 34.4752 270.442 34.1535C270.442 31.7169 270.442 29.2763 270.442 26.8397C270.442 26.4094 270.28 26.3652 269.92 26.3692C268.574 26.3724 267.232 26.5384 265.926 26.8638C262.909 27.5745 260.276 29.3983 258.559 31.9662C256.942 34.3545 256.34 37.0485 256.158 39.859C255.96 42.8907 256.117 45.9264 256.069 48.4153C256.081 52.0702 256.097 55.1662 256.065 58.2623V58.2582ZM176.671 27.0447C176.671 26.5944 176.562 26.4858 176.109 26.4899C173.655 26.514 171.201 26.4899 168.742 26.4899C168.338 26.4899 168.164 26.5502 168.164 27.0246C168.183 37.4787 168.183 47.9328 168.164 58.3869C168.164 58.8091 168.278 58.9136 168.694 58.9096C171.152 58.8895 173.606 58.8815 176.06 58.9096C176.594 58.9096 176.667 58.7488 176.667 58.2743C176.647 53.1035 176.667 47.9288 176.667 42.754C176.667 37.5792 176.651 32.2718 176.671 27.0447ZM177.435 18.0261C177.436 17.0335 177.141 16.0629 176.587 15.237C176.034 14.411 175.247 13.7667 174.325 13.3854C173.404 13.0041 172.389 12.9029 171.41 13.0946C170.431 13.2863 169.531 13.7623 168.823 14.4625C168.116 15.1627 167.633 16.0556 167.435 17.0286C167.238 18.0015 167.335 19.0108 167.714 19.929C168.093 20.8473 168.737 21.6332 169.565 22.1876C170.393 22.742 171.367 23.04 172.365 23.044C173.031 23.0542 173.693 22.9318 174.311 22.6838C174.929 22.4358 175.49 22.0673 175.963 21.6C176.435 21.1328 176.809 20.5762 177.062 19.9631C177.315 19.35 177.442 18.6927 177.435 18.0301V18.0261Z" fill="white"/>
</g>
<defs>
<linearGradient id="paint0_linear_51_3208" x1="14.4696" y1="25.9035" x2="44.1612" y2="77.6204" gradientUnits="userSpaceOnUse">
<stop stop-color="#2FE1FB"/>
<stop offset="0.26" stop-color="#29D8F1"/>
<stop offset="0.7" stop-color="#1ABED6"/>
<stop offset="1" stop-color="#0DA9C0"/>
</linearGradient>
<linearGradient id="paint1_linear_51_3208" x1="29.6104" y1="13.0528" x2="77.9688" y2="41.1282" gradientUnits="userSpaceOnUse">
<stop stop-color="#D814C2"/>
<stop offset="0.14" stop-color="#CF13BF"/>
<stop offset="0.37" stop-color="#B60FB8"/>
<stop offset="0.66" stop-color="#8D09AC"/>
<stop offset="1" stop-color="#55019B"/>
</linearGradient>
<linearGradient id="paint2_linear_51_3208" x1="56.1496" y1="-2.49555" x2="-2.19939" y2="56.1767" gradientUnits="userSpaceOnUse">
<stop stop-color="#568CF5"/>
<stop offset="1" stop-color="#042084"/>
</linearGradient>
<linearGradient id="paint3_linear_51_3208" x1="71.0722" y1="12.3451" x2="71.0682" y2="12.3532" gradientUnits="userSpaceOnUse">
<stop stop-color="#568CF5"/>
<stop offset="1" stop-color="#042084"/>
</linearGradient>
<linearGradient id="paint4_linear_51_3208" x1="85.4823" y1="26.6873" x2="27.1373" y2="85.3555" gradientUnits="userSpaceOnUse">
<stop stop-color="#568CF5"/>
<stop offset="1" stop-color="#042084"/>
</linearGradient>
<clipPath id="clip0_51_3208">
<rect width="270" height="82" fill="white"/>
</clipPath>
</defs>
</svg>
